<svg width="247" height="75" viewBox="0 0 247 75" fill="none" xmlns="http://www.w3.org/2000/svg">
<path d="M27.3 2.29999L19.6 25H19.5V25.4C20.2 27.2 23.2 35.3 25.8 33.4L36.6 2.29999H27.3Z" fill="url(#paint0_linear_1_73)"/>
<path d="M25.3 21.3V20.9C25.2 20.9 23.1 14.6 23.1 14.6L19.6 25H19.5L18.6 28L20.8 34.2H25.6L28.1 27.1C26.7 25 25.7 22.2 25.3 21.3Z" fill="url(#paint1_linear_1_73)"/>
<path d="M19.6 25.4V25C19.5 25 11.9 2.29999 11.9 2.29999H2.40002L14.2 36.2C14.8 37.5 16 38.4 17.4 38.4H24L25.7 33.5C23.2 35.3 20.3 27.3 19.6 25.4Z" fill="url(#paint2_linear_1_73)"/>
<path d="M49.1 4.80001C48.6 3.30001 47.2 2.20001 45.6 2.20001H40.4V38.3H49.1V4.80001Z" fill="url(#paint3_linear_1_73)"/>
<path d="M49.1 6.29999H40.4V19.5C43.4 18.2 46.8 28.6 46.8 28.6L49.1 35.1V6.29999Z" fill="url(#paint4_linear_1_73)"/>
<path d="M49.1 4.80001C48.6 3.40001 47.3 2.30001 45.8 2.20001H40.4V7.10001C43.2 5.00001 46.7 15.5 46.7 15.5L49.1 22.3V4.80001Z" fill="url(#paint5_linear_1_73)"/>
<path d="M77.8 2.29999L70.1 25V25.4C70.8 27.2 73.8 35.3 76.4 33.4L87.2 2.29999H77.9H77.8Z" fill="url(#paint6_linear_1_73)"/>
<path d="M75.9 21.3V20.9L73.7 14.6L70.1 25L69.2 28L71.4 34.2H76.2L78.7 27.1C77.3 25 76.3 22.2 76 21.3H75.9Z" fill="url(#paint7_linear_1_73)"/>
<path d="M70.1 25.4V25L62.4 2.29999H53L64.8 36.2C65.4 37.5 66.6 38.4 68 38.4H74.6L76.3 33.5C73.8 35.3 70.8 27.3 70.1 25.4Z" fill="url(#paint8_linear_1_73)"/>
<path d="M100.1 15.2C99.5 13.4 96.5 5.29999 93.9 7.19999L83.2 38.3H92.5L100.2 15.5L100 15.2H100.1Z" fill="url(#paint9_linear_1_73)"/>
<path d="M100.1 15.2C99.5 13.4 96.5 5.29999 93.9 7.19999L91.7 13.5C93 15.6 94 18.3 94.3 19.3V19.7L96.5 26L100 15.6V15.2H100.1Z" fill="url(#paint10_linear_1_73)"/>
<path d="M100.1 15.2V15.6L107.8 38.4H117.2L105.5 4.49999C104.9 3.19999 103.7 2.29999 102.3 2.29999H95.7L94 7.19999C96.5 5.29999 99.5 13.3 100.1 15.2Z" fill="url(#paint11_linear_1_73)"/>
<path d="M144.6 29.1L146.3 28.5C147.8 28.1 148.9 27.5 148.9 25.9C148.9 24.2 147.8 23.7 146 23.7C144.2 23.7 142.8 24.5 142.8 26.5V27H141.1V26.7C141.1 23.9 142.7 22.4 146 22.4C149.3 22.4 150.6 23.6 150.6 26.1C150.6 28.6 149.1 29.4 147.2 29.9L145.5 30.5C142.9 31.2 142.6 32.1 142.6 34.2H150.6V35.6H141V34C140.8 31.6 141.5 29.9 144.6 29.1Z" fill="black"/>
<path d="M152.2 30V27.9C152.2 24.4 153.9 22.3 157.2 22.3C160.5 22.3 162.1 24.4 162.1 27.9V30C162.1 33.5 160.4 35.6 157.2 35.6C154 35.6 152.2 33.5 152.2 30ZM154.3 32.4L159.6 24.6C159.1 24 158.3 23.7 157.2 23.7C155 23.7 153.9 25.1 153.9 27.7V30.1C153.9 31.1 153.9 31.8 154.3 32.4ZM157.2 34.2C159.3 34.2 160.4 32.8 160.4 30.1V27.7C160.4 26.8 160.3 26.1 160.1 25.6L154.8 33.3C155.4 33.9 156.2 34.2 157.2 34.2Z" fill="black"/>
<path d="M167.7 29.1L169.4 28.5C170.9 28.1 172 27.5 172 25.9C172 24.2 170.9 23.7 169.1 23.7C167.3 23.7 165.9 24.5 165.9 26.5V27H164.2V26.7C164.2 23.9 165.8 22.4 169.1 22.4C172.4 22.4 173.7 23.6 173.7 26.1C173.7 28.6 172.2 29.4 170.3 29.9L168.6 30.5C166 31.2 165.7 32.1 165.7 34.2H173.7V35.6H164.1V34C163.9 31.6 164.6 29.9 167.7 29.1Z" fill="black"/>
<path d="M191.1 22.4H196.6C199.5 22.4 200.9 23.8 200.9 26.6V26.8C200.9 29.6 199.5 31.1 196.6 31.1H192.7V35.5H191.1V22.4ZM196.6 29.7C198.4 29.7 199.2 28.9 199.2 27.1V26.5C199.2 24.7 198.4 23.9 196.6 23.9H192.7V29.7H196.6Z" fill="black"/>
<path d="M205.1 22.4H207.2L211.5 35.4H209.8L209 32.8H203.4L202.6 35.4H200.9L205.1 22.4ZM208.6 31.5L206.3 24.3V24.1C206.2 24.1 206.1 24.3 206.1 24.3L203.8 31.5H208.6Z" fill="black"/>
<path d="M221.1 34.3V32.2C221.1 30.5 219.9 30.1 218.6 30.1H214.8V35.4H213.2V22.4H218.7C221.5 22.4 222.8 23.5 222.8 26.1C222.8 28 222.1 29 220.8 29.4C222.1 29.7 222.8 30.8 222.8 32.2V34.3C222.8 34.7 222.8 35.2 223 35.5H221.3C221.1 35.3 221.1 34.8 221.1 34.3ZM218.6 28.7C220.1 28.7 221.1 28.3 221.1 26.4V26C221.1 24.3 220.2 23.8 218.5 23.8H214.8V28.7H218.6Z" fill="black"/>
<path d="M224.6 34H227.3V23.9H224.6V22.4H231.6V23.9H228.9V34H231.6V35.5H224.6V34Z" fill="black"/>
<path d="M233 31.3V30.8H234.7V31.4C234.7 33.3 235.8 34.1 238.2 34.1C240.6 34.1 241.1 33.5 241.1 32.1C241.1 30.6 240.3 30.1 238.8 29.7L236.4 29C234.7 28.5 233.4 27.6 233.4 25.7C233.4 23.8 235 22.3 237.9 22.3C240.8 22.3 242.6 23.7 242.6 26.1V26.5H240.9V26C240.9 24.4 240 23.6 237.9 23.6C235.8 23.6 235.1 24.2 235.1 25.4C235.1 26.7 236.1 27.2 237.3 27.5L239.8 28.2C241.5 28.7 242.9 29.5 242.9 31.7C242.9 33.9 241.4 35.4 238.2 35.4C234.7 35.6 233 34.1 233 31.3Z" fill="black"/>
<path d="M184.7 31V31.7C184.7 34.6 183 36 179.9 36C176.8 36 175 34.7 175 32V31.7H176.7V32.1C176.7 34 178.3 34.5 179.9 34.5C181.5 34.5 183 33.7 183 31.9V31.1C183 29.3 182 28.5 180.1 28.5C178.2 28.5 177.4 29.3 176.8 30.4H175.2L175.7 22.8H184.2V24.2H177.2L176.9 28.6C177.7 27.6 178.9 27.1 180.6 27.1C183 27.1 184.7 28.5 184.7 31.1V31Z" fill="black"/>
<path d="M128.5 12.8V12.2H129.9V12.7C129.9 13.7 130.1 14.4 130.7 14.9C131.2 15.4 131.8 15.6 132.5 15.6C133.2 15.6 133.8 15.4 134.3 14.9C134.8 14.4 135.1 13.7 135.1 12.7V3.89995H131.7V2.69995H136.5V12.8C136.5 14.2 136.1 15.3 135.3 15.9C134.5 16.6 133.6 16.9 132.5 16.9C131.4 16.9 130.5 16.6 129.7 15.9C128.9 15.2 128.5 14.2 128.5 12.8Z" fill="black"/>
<path d="M140.2 11.8V2.69995H141.6V11.8C141.6 13 142 13.9 142.7 14.6C143.4 15.3 144.4 15.6 145.6 15.6C146.8 15.6 147.8 15.2 148.5 14.6C149.2 13.9 149.6 12.9 149.6 11.7V2.69995H151V11.9C151 13.4 150.5 14.7 149.5 15.6C148.5 16.5 147.2 17 145.6 17C144 17 142.7 16.5 141.7 15.6C140.7 14.7 140.2 13.4 140.2 11.9V11.8Z" fill="black"/>
<path d="M154.8 16.7V2.69995H156.1L163.3 12.8L164.5 14.7C164.5 13.9 164.4 13.3 164.4 12.8V2.69995H165.8V16.8H164.5L157.3 6.69995L156.1 4.79995C156.1 5.59995 156.2 6.19995 156.2 6.69995V16.8H154.8V16.7Z" fill="black"/>
<path d="M169.9 16.7V2.69995H177.8V3.89995H171.3V8.99995H176.6V10.2H171.3V15.4H178.2V16.6H169.9V16.7Z" fill="black"/>
<path d="M185.8 16.7V15.5H189V4.39998C189 4.59998 188.7 4.89998 188.3 5.19998L186.8 6.69998L185.9 5.79998L189.1 2.59998H190.4V15.4H193.5V16.6H185.9L185.8 16.7Z" fill="black"/>
<path d="M195.1 16.7V15.5H198.3V4.39998C198.3 4.59998 198 4.89998 197.6 5.19998L196.1 6.69998L195.2 5.79998L198.4 2.59998H199.7V15.4H202.8V16.6H195.2L195.1 16.7Z" fill="black"/>
<path d="M215.2 16.7V15.5H218.4V4.39998C218.4 4.59998 218.1 4.89998 217.7 5.19998L216.2 6.69998L215.3 5.79998L218.5 2.59998H219.8V15.4H222.9V16.6H215.3L215.2 16.7Z" fill="black"/>
<path d="M223.7 12.8V11.9L230.6 2.59998H232.1V11.5H234.1V12.7H232.1V16.6H230.7V12.7H223.7V12.8ZM225.4 11.6H230.8V4.39998C230.6 4.79998 230.4 5.09998 230.1 5.49998L225.4 11.6Z" fill="black"/>
<path d="M214.1 9V9.7H202.7V9H214.1Z" fill="black"/>
<path d="M9.80002 52.6H2.40002V47.4H23.1V52.6H15.7V72.1H9.80002V52.6Z" fill="black"/>
<path d="M26.1 47.4H41.3V52.6H32V57.1H39.4V62.3H32V67H41.8V72.2H26.1V47.4Z" fill="black"/>
<path d="M57.2 47C63.2 47 66.3 50.5 66.3 50.5L63.6 55C63.6 55 60.9 52.5 57.5 52.5C54.1 52.5 50.6 56 50.6 59.5C50.6 63 53 66.9 57.5 66.9C62 66.9 64 63.9 64 63.9L67.1 68.3C67.1 68.3 63.7 72.4 57.3 72.4C50.9 72.4 44.6 66.9 44.6 59.6C44.6 52.5 49.9 47 57.2 47Z" fill="black"/>
<path d="M70.6 47.4H76.5V57.3H85.3V47.4H91.2V72.1H85.3V62.4H76.5V72.1H70.6V47.4Z" fill="black"/>
<path d="M97.1 47.4H103.1L109.8 58.9C110.8 60.5 111.8 63.1 111.8 63.1C111.8 63.1 111.5 60.4 111.5 58.9V47.4H117.4V72.1H111.4L104.6 60.6C103.6 59 102.6 56.4 102.6 56.4C102.6 56.4 102.9 59.1 102.9 60.6V72.1H97V47.4H97.1Z" fill="black"/>
<path d="M134.4 47C141.7 47 147.1 52.5 147.1 59.6C147.1 66.7 141.7 72.5 134.4 72.5C127.1 72.5 121.7 66.8 121.7 59.6C121.7 52.5 127 47 134.4 47ZM134.4 67C138 67 141 63.8 141 59.6C141 55.4 138.1 52.5 134.4 52.5C130.7 52.5 127.8 55.5 127.8 59.6C127.8 63.7 130.7 67 134.4 67Z" fill="black"/>
<path d="M151.1 47.4H157V66.9H166.9V72.1H151V47.4H151.1Z" fill="black"/>
<path d="M181.1 47C188.4 47 193.8 52.5 193.8 59.6C193.8 66.7 188.4 72.5 181.1 72.5C173.8 72.5 168.4 66.8 168.4 59.6C168.4 52.4 173.8 47 181.1 47ZM181.1 67C184.7 67 187.7 63.8 187.7 59.6C187.7 55.4 184.8 52.5 181.1 52.5C177.4 52.5 174.5 55.5 174.5 59.6C174.6 63.8 177.5 67 181.1 67Z" fill="black"/>
<path d="M209 47C215.2 47 218.3 50.3 218.3 50.3L215.4 54.8C215.4 54.8 212.9 52.5 209.5 52.5C204.4 52.5 202.3 55.8 202.3 59.5C202.3 63.2 205.5 67 209.3 67C213.1 67 214.2 65.2 214.2 65.2V63.3H210.8V58.2H219.5V72.2H214.5V70.5H214.4C214.4 70.5 212.1 72.6 208 72.6C201.8 72.6 196.1 67.9 196.1 59.8C196.3 52.5 201.6 47 209 47Z" fill="black"/>
<path d="M229 62L221 47.4H227.8L230.6 53.3C231.4 55 232.1 56.9 232.1 56.9H232.2C232.2 56.9 232.9 55 233.7 53.3L236.4 47.4H243.2L235.2 62V72.1H229V62Z" fill="black"/>
<defs>
<linearGradient id="paint0_linear_1_73" x1="31.5" y1="2.09999" x2="22.7" y2="31.6" gradientUnits="userSpaceOnUse">
<stop stop-color="#E3097E"/>
<stop offset="1" stop-color="#8C1E80"/>
</linearGradient>
<linearGradient id="paint1_linear_1_73" x1="17.8" y1="26.9" x2="24.5" y2="24.3" gradientUnits="userSpaceOnUse">
<stop stop-opacity="0.6"/>
<stop offset="1" stop-opacity="0"/>
</linearGradient>
<linearGradient id="paint2_linear_1_73" x1="-8.09998" y1="-8.40001" x2="21.2" y2="30" gradientUnits="userSpaceOnUse">
<stop stop-color="#512680"/>
<stop offset="0.2" stop-color="#572580"/>
<stop offset="0.5" stop-color="#672380"/>
<stop offset="0.8" stop-color="#821F80"/>
<stop offset="1" stop-color="#9C1B80"/>
</linearGradient>
<linearGradient id="paint3_linear_1_73" x1="44.7" y1="9.20001" x2="44.7" y2="36.7" gradientUnits="userSpaceOnUse">
<stop stop-color="#5E61A7"/>
<stop offset="0.7" stop-color="#249FD9"/>
<stop offset="1" stop-color="#0DB8ED"/>
</linearGradient>
<linearGradient id="paint4_linear_1_73" x1="53.9" y1="14.4" x2="44.4" y2="20.9" gradientUnits="userSpaceOnUse">
<stop offset="0.5" stop-opacity="0.4"/>
<stop offset="1" stop-opacity="0"/>
</linearGradient>
<linearGradient id="paint5_linear_1_73" x1="42.4" y1="1.30001" x2="51.4" y2="19.2" gradientUnits="userSpaceOnUse">
<stop stop-color="#904E98"/>
<stop offset="0.4" stop-color="#7561A7"/>
<stop offset="0.7" stop-color="#656DB1"/>
<stop offset="1" stop-color="#5F71B4"/>
</linearGradient>
<linearGradient id="paint6_linear_1_73" x1="82" y1="2.09999" x2="73.2" y2="31.6" gradientUnits="userSpaceOnUse">
<stop stop-color="#C5D209"/>
<stop offset="1" stop-color="#4ABBC6"/>
</linearGradient>
<linearGradient id="paint7_linear_1_73" x1="68.3" y1="26.9" x2="75.1" y2="24.3" gradientUnits="userSpaceOnUse">
<stop stop-opacity="0.5"/>
<stop offset="1" stop-opacity="0"/>
</linearGradient>
<linearGradient id="paint8_linear_1_73" x1="42.4" y1="-8.40001" x2="71.7" y2="30" gradientUnits="userSpaceOnUse">
<stop stop-color="#2EADE4"/>
<stop offset="1" stop-color="#89C8B5"/>
</linearGradient>
<linearGradient id="paint9_linear_1_73" x1="87.5" y1="38.9" x2="96.9" y2="12.2" gradientUnits="userSpaceOnUse">
<stop stop-color="#C5D209"/>
<stop offset="1" stop-color="#F49B05"/>
</linearGradient>
<linearGradient id="paint10_linear_1_73" x1="101.9" y1="10.1" x2="96.3" y2="15.5" gradientUnits="userSpaceOnUse">
<stop stop-opacity="0.6"/>
<stop offset="1" stop-opacity="0"/>
</linearGradient>
<linearGradient id="paint11_linear_1_73" x1="99.4" y1="3.19999" x2="110.8" y2="39.1" gradientUnits="userSpaceOnUse">
<stop stop-color="#FDCA09"/>
<stop offset="0.2" stop-color="#F6960D"/>
<stop offset="0.6" stop-color="#EB4A12"/>
<stop offset="0.9" stop-color="#E41916"/>
<stop offset="1" stop-color="#E10717"/>
</linearGradient>
</defs>
</svg>
